<svg width="44" height="36" viewBox="0 0 44 36" xmlns="http://www.w3.org/2000/svg"><path d="M29.782 10.843c.506 0 1.004.039 1.505.094C29.939 4.66 23.232 0 15.573 0 7.013 0 0 5.833 0 13.244c0 4.276 2.332 7.788 6.231 10.516l-1.556 4.683 5.445-2.728c1.947.383 3.509.779 5.453.779.49 0 .974-.023 1.452-.058a11.674 11.674 0 0 1-.481-3.267c.003-6.804 5.844-12.326 13.238-12.326zm-8.37-4.221c1.177 0 1.95.773 1.95 1.944 0 1.166-.773 1.947-1.95 1.947-1.164 0-2.335-.78-2.335-1.947 0-1.174 1.168-1.944 2.334-1.944zm-10.899 3.891c-1.168 0-2.345-.78-2.345-1.947 0-1.171 1.177-1.944 2.345-1.944 1.169 0 1.944.77 1.944 1.944 0 1.166-.775 1.947-1.944 1.947zM44 22.982c0-6.226-6.231-11.3-13.23-11.3-7.412 0-13.244 5.077-13.244 11.3 0 6.242 5.835 11.3 13.244 11.3 1.55 0 3.116-.388 4.672-.779l4.27 2.343-1.17-3.894C41.667 29.604 44 26.493 44 22.982zm-17.526-1.95c-.773 0-1.556-.77-1.556-1.556 0-.776.784-1.557 1.556-1.557 1.183 0 1.95.781 1.95 1.556 0 .787-.767 1.557-1.95 1.557zm8.567 0c-.768 0-1.549-.77-1.549-1.556 0-.776.779-1.557 1.549-1.557 1.171 0 1.95.781 1.95 1.556 0 .787-.779 1.557-1.95 1.557z" fill="#FFF" fill-rule="nonzero"/></svg>
